<svg id="Capa_1" enable-background="new 0 0 512 512" height="512" viewBox="0 0 512 512" width="512" xmlns="http://www.w3.org/2000/svg"><g><path d="m512 125.602h-229.444l-20 160.398 20 160.398h229.444z" fill="#0a1f33"/><path d="m282.556 125.602h-186.954l-51.868 73.734 20 247.062h218.822z" fill="#17324d"/><path d="m364.576 125.602-16.077-60h-65.943l-20 80z" fill="#17324d"/><path d="m282.556 65.602h-65.943l-16.077 60 82.02 20z" fill="#284866"/><path d="m282.556 95.602h30v30l-50 20z" fill="#cfdfe6"/><path d="m252.556 95.602h30v50l-30-20z" fill="#fff5f5"/><path d="m282.556 125.602-20 126.648h135.955l-33.935-126.648z" fill="#284866"/><path d="m200.536 125.602-33.935 126.648h115.955v-126.648z" fill="#406080"/><path d="m442.954 271h-30.868c-7.463-64.862-62.701-115.398-129.53-115.398l-20 130.398 20 130.398c66.829 0 122.067-50.536 129.53-115.398h30.868z" fill="#17324d"/><path d="m282.556 155.602c-71.902 0-130.398 58.496-130.398 130.398s58.496 130.398 130.398 130.398z" fill="#284866"/><path d="m282.556 185.602-20 100.398 20 100.398c55.36 0 100.398-45.039 100.398-100.398s-45.038-100.398-100.398-100.398z" fill="#284866"/><path d="m182.158 286c0 55.36 45.039 100.398 100.398 100.398v-200.796c-55.36 0-100.398 45.038-100.398 100.398z" fill="#406080"/><path d="m282.556 215.602-20 70.398 20 70.398c38.818 0 70.398-31.581 70.398-70.398s-31.58-70.398-70.398-70.398z" fill="#0a1f33"/><path d="m212.158 286c0 38.818 31.581 70.398 70.398 70.398v-140.796c-38.818 0-70.398 31.58-70.398 70.398z" fill="#17324d"/><path d="m282.556 256-20 30 20 30c16.569 0 30-13.431 30-30s-13.431-30-30-30z" fill="#cfdfe6"/><path d="m0 199.336v247.062h63.734v-267.062z" fill="#284866"/><path d="m0 199.336h95.602v-30l-47.801-20-47.801 20z" fill="#f66"/><path d="m0 125.602h95.602v43.734h-95.602z" fill="#284866"/><path d="m252.556 286c0 16.569 13.431 30 30 30v-60c-16.568 0-30 13.431-30 30z" fill="#fff5f5"/></g></svg>