<svg id="Capa_1" enable-background="new 0 0 512 512" height="512" viewBox="0 0 512 512" width="512" xmlns="http://www.w3.org/2000/svg"><g><g><path d="m119.726 143.774v97.53c0 62.65 24.048 110.89 48.097 142.955h56.113v-372.807c-59.762 14.44-104.21 68.125-104.21 132.322z" fill="#ffe17d"/><path d="m408.282 396.981-82.792-29.221c-12.82-4.525-21.393-16.642-21.393-30.237v-10.892l-96.194-38.567v49.459c0 13.595-8.573 25.712-21.393 30.237l-82.792 29.221c-19.229 6.787-32.089 24.962-32.089 45.354v62.165h64.129l25.91-11.5h186.665l43.941 11.5h48.097v-62.165c0-20.392-12.859-38.567-32.089-45.354z" fill="#f7d291"/><path d="m317.3 455.775-53.755 28.67c-2.358 1.257-4.951 1.886-7.544 1.886s-5.187-.629-7.544-1.886l-53.755-28.67c-26.698-14.239-58.942 5.107-58.942 35.365v13.36h240.484v-13.36c-.002-30.258-32.246-49.605-58.944-35.365z" fill="#ff8087"/><path d="m207.903 326.631c15.363 6.242 31.504 9.53 48.097 9.53s32.734-3.288 48.097-9.53v-38.567h-96.194z" fill="#f0c382"/><path d="m360.21 504.5c0-64.129-56.113-89.54-56.113-160.323v-8.016-168.338l88.177 7.341v329.336z" fill="#fff0af"/><path d="m272.032 400.29c0 11.239-7.878 26.416-12.59 34.488-1.546 2.649-5.339 2.649-6.885 0-4.711-8.072-12.59-23.249-12.59-34.488 0-8.854 7.178-16.032 16.032-16.032s16.033 7.178 16.033 16.032z" fill="#ff8087"/><path d="m371.091 175.839h-10.881c-8.854 0-16.032-7.178-16.032-16.032v-16.032c0-22.136-17.944-40.081-40.081-40.081l-96.194 6.388c-13.173 0-24.759 6.44-32.065 16.251v147.902c19.086 23.093 47.848 37.878 80.161 37.878 54.847 0 99.699-42.398 103.805-96.194h12.429c11.75 0 21.138-10.112 19.937-22.108-1.045-10.43-10.597-17.972-21.079-17.972z" fill="#ffe1a0"/><path d="m390.097 186.727c-4.23-7.007-12.21-10.888-20.395-10.888h-9.493c-8.854 0-16.032-7.178-16.032-16.032v-16.032c0-22.136-17.944-40.081-40.081-40.081h-96.194c-22.136 0-40.081 17.945-40.081 40.081v16.032c0 8.854-7.179 16.032-16.032 16.032h-12.024c-11.068 0-20.04 8.972-20.04 20.04s8.972 20.04 20.04 20.04h12.429c4.106 53.795 48.958 96.194 103.805 96.194 12.594 0 24.616-2.327 35.784-6.422l-18.479-2.851c-46.855-7.23-81.434-47.555-81.434-94.965v-64.101c0-4.283 1.667-8.309 4.695-11.337.037-.037.074-.074.112-.111 4.458-4.374 12.177-3.661 16.625.723 43.202 42.563 102.174 66.838 162.939 66.838 2.409 0 13.326-.066 15.928-.163.781-3.974.82-8.207-2.072-12.997z" fill="#f7d291"/><path d="m219.928 231.255c0 17.709 16.15 32.064 36.072 32.064s36.073-14.356 36.072-32.064z" fill="#fff"/><path d="m256 7.5c-28.992 0-55.818 9.121-77.908 24.556 27.208 83.455 105.613 143.783 198.15 143.783 5.401 0 10.735-.271 16.032-.675v-31.39c0-75.262-61.012-136.274-136.274-136.274z" fill="#ffe17d"/><path d="m376.242 143.774c5.395 0 10.723-.281 15.994-.755-.411-74.91-61.229-135.519-136.236-135.519-17.324 0-33.845 3.317-49.073 9.231 21.34 73.389 89.041 127.043 169.315 127.043z" fill="#fff0af"/></g><g><path d="m410.778 389.908-11.003-3.883v-242.25c-.001-79.278-64.498-143.775-143.775-143.775s-143.774 64.497-143.774 143.774v97.529c0 59.341 19.737 103.223 38.152 131.256l-49.155 17.349c-22.187 7.831-37.093 28.899-37.093 52.428v62.164c0 4.142 3.358 7.5 7.5 7.5s7.5-3.358 7.5-7.5v-62.164c0-17.18 10.885-32.564 27.085-38.282l80.579-28.44c10.38 18.25 27.383 31.578 47.691 37.249 4.259 14.83 13.902 29.609 15.275 31.668 1.391 2.086 3.732 3.34 6.24 3.34s4.85-1.253 6.24-3.34c1.373-2.06 11.021-16.847 15.279-31.681 11.106-3.099 21.282-8.521 30.017-15.965 5.494 12.811 12.417 24.269 19.237 35.546 2.265 3.746 4.507 7.457 6.672 11.179-6.799.398-13.512 2.259-19.675 5.546l-53.755 28.669c-2.515 1.341-5.516 1.341-8.03 0l-53.755-28.669c-14.884-7.938-32.406-7.496-46.871 1.183s-23.101 23.931-23.101 40.8v13.36c0 4.142 3.358 7.5 7.5 7.5s7.5-3.358 7.5-7.5v-13.36c0-11.551 5.913-21.995 15.818-27.938 9.904-5.942 21.902-6.246 32.095-.81l53.755 28.669c6.934 3.698 15.214 3.698 22.147 0l53.755-28.669c6.573-3.506 13.747-4.659 20.87-3.392 6.49 13.543 11.01 28.023 11.01 45.5 0 4.142 3.358 7.5 7.5 7.5s7.5-3.358 7.5-7.5c0-33.365-14.286-56.986-28.101-79.83-14.406-23.82-28.012-46.319-28.012-80.492v-8.017c0-4.142-3.358-7.5-7.5-7.5s-7.5 3.358-7.5 7.5v8.017c0 14.01 2.053 26.282 5.375 37.419-6.502 6.594-14.215 11.645-22.746 14.916-1.813-11.185-11.535-19.754-23.225-19.754-11.679 0-21.394 8.554-23.219 19.724-13.59-5.271-25.21-15.151-32.615-27.772 9.422-7.365 15.237-18.794 15.237-31.187v-25.55c12.59 4.928 26.282 7.639 40.597 7.639 56.313 0 103.051-41.921 110.631-96.193h4.458c4.912 0 9.587-1.231 13.685-3.387v284.468c0 4.142 3.358 7.5 7.5 7.5s7.5-3.358 7.5-7.5v-102.568l6.011 2.122c16.201 5.718 27.085 21.102 27.085 38.282v62.164c0 4.142 3.358 7.5 7.5 7.5s7.5-3.358 7.5-7.5v-62.164c.002-23.528-14.905-44.597-37.091-52.428zm-154.778 1.85c4.705 0 8.532 3.828 8.532 8.532 0 7.166-4.329 17.273-8.532 25.263-4.204-7.99-8.532-18.097-8.532-25.263 0-4.704 3.827-8.532 8.532-8.532zm128.537-255.692c-2.762.133-5.538.208-8.295.208-37.188 0-72.456-11.851-101.993-34.272-26.897-20.416-47.342-48.888-58.075-80.691 12.547-4.09 25.931-6.311 39.826-6.311 68.418 0 124.536 53.636 128.537 121.066zm-184.134 201.457c0 10.396-6.586 19.704-16.389 23.164l-19.036 6.719c-17.777-26.026-37.752-68.161-37.752-126.103v-20.913c3.846 1.967 8.141 3.029 12.541 3.029h5.598c4.855 34.791 25.795 64.501 55.04 81.351v32.753zm184.304-140.325c-.63 6.292-6.612 11.222-13.618 11.221h-3.383v-.439c0-4.141-3.356-7.499-7.497-7.5 0 0-.002 0-.003 0-4.14 0-7.497 3.354-7.5 7.495-.039 53.286-43.421 96.638-96.706 96.638-53.326 0-96.71-43.384-96.71-96.709 0-4.142-3.358-7.5-7.5-7.5s-7.5 3.358-7.5 7.5v.516h-4.524c-3.537 0-6.927-1.505-9.303-4.131-2.407-2.66-3.533-6.115-3.171-9.729.631-6.292 6.613-11.221 13.62-11.221h2.862c17.396 0 31.549-14.153 31.549-31.549v-8.016c0-10.344 4.75-19.845 13.033-26.068 3.312-2.488 3.979-7.19 1.491-10.501s-7.19-3.979-10.501-1.491c-12.089 9.083-19.022 22.956-19.022 38.06v8.016c0 9.125-7.424 16.549-16.549 16.549h-2.862c-.001 0 0 0 0 0-4.912 0-9.587 1.231-13.686 3.387v-27.951c0-39.683 18.047-75.226 46.359-98.867 17.819 39.501 44.174 73.299 76.621 98.143 33.932 25.98 72.999 40.288 110.004 40.288h12.024c3.537 0 6.927 1.505 9.303 4.13 2.405 2.66 3.531 6.115 3.169 9.729zm-12.473-28.859h-12.024c-33.728 0-69.556-13.211-100.885-37.198-31.284-23.953-56.569-56.847-73.378-95.366 5.173-3.367 10.601-6.372 16.249-8.98 11.75 34.35 33.905 65.083 62.984 87.156 32.167 24.417 70.572 37.324 111.062 37.324 2.836 0 5.689-.074 8.533-.204v20.296c-3.846-1.966-8.141-3.028-12.541-3.028z"/><path d="m223.035 149.418c-1.31-3.929-5.558-6.054-9.487-4.744l-24.048 8.017c-3.93 1.31-6.053 5.557-4.744 9.487 1.048 3.143 3.974 5.13 7.114 5.13.786 0 1.586-.125 2.373-.387l24.048-8.017c3.93-1.308 6.053-5.556 4.744-9.486z"/><path d="m215.403 191.871v-8.017c0-4.142-3.358-7.5-7.5-7.5s-7.5 3.358-7.5 7.5v8.017c0 4.142 3.358 7.5 7.5 7.5s7.5-3.358 7.5-7.5z"/><path d="m304.097 176.354c-4.142 0-7.5 3.358-7.5 7.5v8.017c0 4.142 3.358 7.5 7.5 7.5s7.5-3.358 7.5-7.5v-8.017c0-4.141-3.358-7.5-7.5-7.5z"/><path d="m292.073 223.755h-72.146c-4.142 0-7.5 3.358-7.5 7.5 0 21.816 19.547 39.564 43.573 39.564s43.573-17.749 43.573-39.564c0-4.142-3.358-7.5-7.5-7.5zm-36.073 32.064c-12.714 0-23.516-7.176-27.211-17.064h54.422c-3.695 9.889-14.497 17.064-27.211 17.064z"/></g></g></svg>