<svg id="Capa_1" enable-background="new 0 0 512 512" height="512" viewBox="0 0 512 512" width="512" xmlns="http://www.w3.org/2000/svg"><g><path d="m416.165 161.924-180.165-20v101.567l180.165-20z" fill="#0a1f33"/><path d="m95.835 161.924v61.567l160.165 20v-101.567z" fill="#17324d"/><path d="m416.165 512v-140.012l-180.165-20 20 160.012z" fill="#17324d"/><path d="m95.835 512h160.165v-160.012l-160.165 20z" fill="#284866"/><path d="m356.165 402.664h30v30h-30z" fill="#cfdfe6"/><path d="m296.165 402.664h30v30h-30z" fill="#cfdfe6"/><path d="m416.165 371.988v-31.821l-180.165-20 20 51.821z" fill="#284866"/><path d="m416.165 340.167v-31.821l-180.165-20 20 51.821z" fill="#0a1f33"/><path d="m95.835 371.988h160.165v-36.326l-160.165 4.505z" fill="#406080"/><path d="m95.835 340.167h160.165v-51.821l-160.165 20z" fill="#17324d"/><path d="m446.165 308.346v-84.855h-190.165l-20 42.428 20 42.427z" fill="#17324d"/><path d="m65.835 223.491h190.165v84.856h-190.165z" fill="#284866"/><path d="m476.914 5.454-29.5-5.454-17.315 93.658-24.541-93.658h-149.558l-20 80.962 20 80.962h191.986z" fill="#17324d"/><path d="m106.442 0-24.541 93.658-17.315-93.658-29.5 5.454 28.928 156.47h191.986v-161.924z" fill="#284866"/></g></svg>