<svg id="Capa_1" enable-background="new 0 0 512 512" height="512" viewBox="0 0 512 512" width="512" xmlns="http://www.w3.org/2000/svg"><g><path d="m271 0h-105l-20 149.996 20 362.004h105z" fill="#17324d"/><path d="m61 0h105v512h-105z" fill="#284866"/><path d="m241 482v-332h-75l-20 74.999 20 257.001z" fill="#0a1f33"/><path d="m91 150h75v332h-75z" fill="#17324d"/><path d="m121 300h30v30h-30z" fill="#cfdfe6"/><path d="m181 300h30v30h-30z" fill="#a3c6cc"/><path d="m211 225c0-24.813-20.187-45-45-45l-20 45 20 45c24.813 0 45-20.187 45-45z" fill="#cfdfe6"/><path d="m121 225c0 24.813 20.187 45 45 45v-90c-24.813 0-45 20.187-45 45z" fill="#fff5f5"/><path d="m406 512c-24.813 0-45-20.187-45-45v-362c0-8.271-6.729-15-15-15s-15 6.729-15 15v302c0 24.813-20.187 45-45 45h-30v-30h30c8.271 0 15-6.729 15-15v-302c0-24.813 20.187-45 45-45s45 20.187 45 45v362c0 8.271 6.729 15 15 15s15-6.729 15-15v-467h30v467c0 24.813-20.187 45-45 45z" fill="#0a1f33"/><path d="m241 30h-75l-20 45 20 45h75z" fill="#0a1f33"/><path d="m91 30h75v90h-75z" fill="#17324d"/><circle cx="166" cy="225" fill="#284866" r="15"/><path d="m211 60h-45l-10 15 10 15h45z" fill="#29cc95"/><path d="m121 60h45v30h-45z" fill="#4dff88"/></g></svg>