<svg id="Capa_1" enable-background="new 0 0 512 512" height="512" viewBox="0 0 512 512" width="512" xmlns="http://www.w3.org/2000/svg"><g><path d="m512 0h-256l-20 110 276-20z" fill="#cfdfe6"/><path d="m0 0v90l256 20v-110z" fill="#fff5f5"/><path d="m512 90h-256l-20 402 166.188 20h109.812z" fill="#69f"/><path d="m0 90v422h109.812l146.188-20v-402z" fill="#9cf"/><path d="m30 30h30v30h-30z" fill="#f66"/><path d="m90 30h30v30h-30z" fill="#ffc34d"/><path d="m150 30h30v30h-30z" fill="#29cc95"/><path d="m415.336 269.938v-30h-159.336l-10 15.065 10 14.935z" fill="#cfdfe6"/><path d="m402.188 338.486h-81.216l-32.486-32.486h-32.486l-20 115.801 20 90.199h146.188z" fill="#17324d"/><path d="m223.514 306-32.486 32.486h-81.216v173.514h146.188v-206z" fill="#284866"/><path d="m256 361.602-20 60.199 20 60.199c33.247 0 60.199-26.952 60.199-60.199s-26.952-60.199-60.199-60.199z" fill="#0a1f33"/><path d="m195.801 421.801c0 33.247 26.952 60.199 60.199 60.199v-120.398c-33.247 0-60.199 26.952-60.199 60.199z" fill="#17324d"/><path d="m256 391.602-20 30.199 20 30.199c16.652 0 30.199-13.547 30.199-30.199s-13.547-30.199-30.199-30.199z" fill="#cfdfe6"/><path d="m225.801 421.801c0 16.652 13.547 30.199 30.199 30.199v-60.398c-16.652 0-30.199 13.546-30.199 30.199z" fill="#fff5f5"/><path d="m415.336 206.203v-30h-159.336l-10 15 10 15z" fill="#cfdfe6"/><g fill="#fff5f5"><path d="m96.664 239.938h63.734v30h-63.734z"/><path d="m96.664 176.203h159.336v30h-159.336z"/><path d="m192.266 239.938h63.734v30h-63.734z"/></g></g></svg>